<svg id="visual" viewBox="0 0 900 400" width="900" height="400" xmlns="http://www.w3.org/2000/svg" xmlns:xlink="http://www.w3.org/1999/xlink" version="1.1"><path d="M0 29L13.7 31.7C27.3 34.3 54.7 39.7 82 41C109.3 42.3 136.7 39.7 163.8 43.7C191 47.7 218 58.3 245.2 60.3C272.3 62.3 299.7 55.7 327 51.7C354.3 47.7 381.7 46.3 409 47C436.3 47.7 463.7 50.3 491 53C518.3 55.7 545.7 58.3 573 59.7C600.3 61 627.7 61 654.8 57.7C682 54.3 709 47.7 736.2 49C763.3 50.3 790.7 59.7 818 59.7C845.3 59.7 872.7 50.3 886.3 45.7L900 41L900 0L886.3 0C872.7 0 845.3 0 818 0C790.7 0 763.3 0 736.2 0C709 0 682 0 654.8 0C627.7 0 600.3 0 573 0C545.7 0 518.3 0 491 0C463.7 0 436.3 0 409 0C381.7 0 354.3 0 327 0C299.7 0 272.3 0 245.2 0C218 0 191 0 163.8 0C136.7 0 109.3 0 82 0C54.7 0 27.3 0 13.7 0L0 0Z" fill="#3c31dd"></path><path d="M0 149L13.7 145.7C27.3 142.3 54.7 135.7 82 129C109.3 122.3 136.7 115.7 163.8 121C191 126.3 218 143.7 245.2 141C272.3 138.3 299.7 115.7 327 107.7C354.3 99.7 381.7 106.3 409 105.7C436.3 105 463.7 97 491 97C518.3 97 545.7 105 573 115.7C600.3 126.3 627.7 139.7 654.8 138.3C682 137 709 121 736.2 117.7C763.3 114.3 790.7 123.7 818 123.7C845.3 123.7 872.7 114.3 886.3 109.7L900 105L900 39L886.3 43.7C872.7 48.3 845.3 57.7 818 57.7C790.7 57.7 763.3 48.3 736.2 47C709 45.7 682 52.3 654.8 55.7C627.7 59 600.3 59 573 57.7C545.7 56.3 518.3 53.7 491 51C463.7 48.3 436.3 45.7 409 45C381.7 44.3 354.3 45.7 327 49.7C299.7 53.7 272.3 60.3 245.2 58.3C218 56.3 191 45.7 163.8 41.7C136.7 37.7 109.3 40.3 82 39C54.7 37.7 27.3 32.3 13.7 29.7L0 27Z" fill="#3024c3"></path><path d="M0 177L13.7 177C27.3 177 54.7 177 82 177C109.3 177 136.7 177 163.8 181.7C191 186.3 218 195.7 245.2 193C272.3 190.3 299.7 175.7 327 165.7C354.3 155.7 381.7 150.3 409 143.7C436.3 137 463.7 129 491 128.3C518.3 127.7 545.7 134.3 573 143.7C600.3 153 627.7 165 654.8 168.3C682 171.7 709 166.3 736.2 168.3C763.3 170.3 790.7 179.7 818 175C845.3 170.3 872.7 151.7 886.3 142.3L900 133L900 103L886.3 107.7C872.7 112.3 845.3 121.7 818 121.7C790.7 121.7 763.3 112.3 736.2 115.7C709 119 682 135 654.8 136.3C627.7 137.7 600.3 124.3 573 113.7C545.7 103 518.3 95 491 95C463.7 95 436.3 103 409 103.7C381.7 104.3 354.3 97.7 327 105.7C299.7 113.7 272.3 136.3 245.2 139C218 141.7 191 124.3 163.8 119C136.7 113.7 109.3 120.3 82 127C54.7 133.7 27.3 140.3 13.7 143.7L0 147Z" fill="#2318a9"></path><path d="M0 253L13.7 264.3C27.3 275.7 54.7 298.3 82 308.3C109.3 318.3 136.7 315.7 163.8 316.3C191 317 218 321 245.2 309.7C272.3 298.3 299.7 271.7 327 261.7C354.3 251.7 381.7 258.3 409 255C436.3 251.7 463.7 238.3 491 246.3C518.3 254.3 545.7 283.7 573 303C600.3 322.3 627.7 331.7 654.8 323C682 314.3 709 287.7 736.2 281.7C763.3 275.7 790.7 290.3 818 295.7C845.3 301 872.7 297 886.3 295L900 293L900 131L886.3 140.3C872.7 149.7 845.3 168.3 818 173C790.7 177.7 763.3 168.3 736.2 166.3C709 164.3 682 169.7 654.8 166.3C627.7 163 600.3 151 573 141.7C545.7 132.3 518.3 125.7 491 126.3C463.7 127 436.3 135 409 141.7C381.7 148.3 354.3 153.7 327 163.7C299.7 173.7 272.3 188.3 245.2 191C218 193.7 191 184.3 163.8 179.7C136.7 175 109.3 175 82 175C54.7 175 27.3 175 13.7 175L0 175Z" fill="#140b91"></path><path d="M0 401L13.7 401C27.3 401 54.7 401 82 401C109.3 401 136.7 401 163.8 401C191 401 218 401 245.2 401C272.3 401 299.7 401 327 401C354.3 401 381.7 401 409 401C436.3 401 463.7 401 491 401C518.3 401 545.7 401 573 401C600.3 401 627.7 401 654.8 401C682 401 709 401 736.2 401C763.3 401 790.7 401 818 401C845.3 401 872.7 401 886.3 401L900 401L900 291L886.3 293C872.7 295 845.3 299 818 293.7C790.7 288.3 763.3 273.7 736.2 279.7C709 285.7 682 312.3 654.8 321C627.7 329.7 600.3 320.3 573 301C545.7 281.7 518.3 252.3 491 244.3C463.7 236.3 436.3 249.7 409 253C381.7 256.3 354.3 249.7 327 259.7C299.7 269.7 272.3 296.3 245.2 307.7C218 319 191 315 163.8 314.3C136.7 313.7 109.3 316.3 82 306.3C54.7 296.3 27.3 273.7 13.7 262.3L0 251Z" fill="#000079"></path></svg>